<svg version="1.1" id="Layer_1" xmlns="http://www.w3.org/2000/svg" xmlns:xlink="http://www.w3.org/1999/xlink" x="0px" y="0px"
	 width="100%" viewBox="0 0 128 128" enable-background="new 0 0 128 128" xml:space="preserve">
<path fill="#FABF5E" opacity="1.000000" stroke="none" 
	d="
M65.000000,129.000000 
	C43.778591,129.000000 22.557180,129.000000 1.000000,129.000000 
	C1.000000,122.649971 1.000000,116.294029 1.389492,109.460739 
	C5.263789,107.399857 9.942369,106.705917 11.945293,104.018105 
	C14.741903,100.265198 17.875322,101.330048 21.492718,100.971863 
	C22.553106,101.048912 23.548113,100.847435 23.825075,101.203888 
	C26.967718,105.248428 29.655733,109.869736 35.928432,109.268738 
	C36.224796,109.240341 36.516792,110.361488 36.986668,110.710670 
	C38.112526,111.547340 39.312309,112.829826 40.536983,112.894402 
	C46.018078,113.183403 51.518326,113.109146 57.018494,113.545311 
	C58.500233,117.232841 59.938194,120.558578 61.488617,123.831032 
	C61.729950,124.340408 62.661102,124.499870 62.967220,125.006172 
	C63.738018,126.281097 64.333969,127.661736 65.000000,129.000000 
z"/>
<path fill="#FA5E83" opacity="1.000000" stroke="none" 
	d="
M129.000000,97.000000 
	C129.000000,107.593208 129.000000,118.186409 129.000000,129.000000 
	C118.646812,129.000000 108.292068,129.000000 97.468658,128.560852 
	C97.509880,125.818634 97.855225,123.461899 98.583282,121.230011 
	C99.135017,119.538628 100.614967,118.078499 100.892082,116.386147 
	C101.289909,113.956558 100.969238,111.409317 100.973740,108.508041 
	C103.427910,105.194359 105.863632,102.284935 109.027893,98.505287 
	C109.027893,97.863045 109.027893,95.876747 109.027893,93.525871 
	C112.897743,93.471413 113.222237,91.039421 113.057976,87.943756 
	C112.864937,84.305557 113.110283,80.644112 113.550323,77.000076 
	C117.133682,78.995583 120.754822,80.484100 121.051727,85.159821 
	C121.318016,89.353317 126.747925,91.554230 125.656372,96.392845 
	C126.770912,96.595230 127.885460,96.797615 129.000000,97.000000 
z"/>
<path fill="#7D389B" opacity="1.000000" stroke="none" 
	d="
M105.000000,1.000000 
	C112.926338,1.000000 120.852669,1.000000 129.000000,1.000000 
	C129.000000,8.686132 129.000000,16.374374 128.609344,24.539783 
	C122.656792,30.571602 115.544792,28.713949 108.483261,29.033707 
	C105.232384,26.639788 102.391541,24.270515 99.550697,21.901243 
	C99.757614,21.591089 99.964531,21.280933 100.171448,20.970779 
	C98.026375,20.970779 95.881302,20.970779 93.736229,20.970779 
	C93.875343,20.459988 94.014458,19.949198 94.153572,19.438406 
	C92.254837,18.625648 90.388077,17.212957 88.451523,17.109755 
	C81.983955,16.765074 75.491402,16.889286 69.016266,16.432301 
	C68.947937,12.713174 71.344978,13.115510 73.489082,12.980707 
	C75.751717,12.838451 79.468002,13.241866 80.000145,12.156781 
	C82.031738,8.014217 85.372452,9.235610 88.463470,8.975457 
	C89.741058,8.867929 91.882851,8.856046 92.122543,8.226287 
	C93.781364,3.868083 97.381920,5.020446 100.470894,5.050129 
	C103.399887,5.078275 105.395859,4.491038 105.000000,1.000000 
z"/>
<path fill="#97389B" opacity="1.000000" stroke="none" 
	d="
M108.893295,29.058352 
	C115.544792,28.713949 122.656792,30.571602 128.609344,25.008476 
	C129.000000,48.687561 129.000000,72.375122 129.000000,96.531342 
	C127.885460,96.797615 126.770912,96.595230 125.656372,96.392845 
	C126.747925,91.554230 121.318016,89.353317 121.051727,85.159821 
	C120.754822,80.484100 117.133682,78.995583 113.482407,76.535240 
	C113.029678,63.171444 113.029678,50.279819 113.029678,37.388199 
	C112.479904,37.560226 111.930122,37.732250 111.380348,37.904278 
	C110.587204,36.445660 109.535095,35.062988 109.078384,33.505703 
	C108.673172,32.123997 108.929176,30.548374 108.893295,29.058352 
z"/>
<path fill="#4E5DD7" opacity="1.000000" stroke="none" 
	d="
M1.000000,29.000000 
	C1.000000,19.713314 1.000000,10.426628 1.000000,1.000000 
	C20.687365,1.000000 40.375023,1.000000 60.521339,1.402280 
	C60.006508,2.857558 59.227486,4.346616 58.023792,4.883411 
	C54.101620,6.632534 48.484875,6.896148 46.331936,9.809346 
	C42.043713,15.611842 33.647961,10.156749 30.444441,16.884031 
	C30.309605,17.167183 29.105135,16.796459 28.544252,17.050772 
	C27.305002,17.612665 26.152906,18.369625 24.975780,19.064829 
	C23.921547,19.687449 22.941967,20.479946 21.824133,20.943567 
	C17.851185,22.591360 12.662996,23.102764 10.136933,25.978615 
	C7.168148,29.358498 4.265131,28.765772 1.000000,29.000000 
z"/>
<path fill="#684ED7" opacity="1.000000" stroke="none" 
	d="
M1.000000,29.444164 
	C4.265131,28.765772 7.168148,29.358498 10.136933,25.978615 
	C12.662996,23.102764 17.851185,22.591360 21.824133,20.943567 
	C22.941967,20.479946 23.921547,19.687449 24.975780,19.064829 
	C26.152906,18.369625 27.305002,17.612665 28.544252,17.050772 
	C29.105135,16.796459 30.309605,17.167183 30.444441,16.884031 
	C33.647961,10.156749 42.043713,15.611842 46.331936,9.809346 
	C48.484875,6.896148 54.101620,6.632534 58.023792,4.883411 
	C59.227486,4.346616 60.006508,2.857558 60.989998,1.402280 
	C75.354225,1.000000 89.708458,1.000000 104.531342,1.000000 
	C105.395859,4.491038 103.399887,5.078275 100.470894,5.050129 
	C97.381920,5.020446 93.781364,3.868083 92.122543,8.226287 
	C91.882851,8.856046 89.741058,8.867929 88.463470,8.975457 
	C85.372452,9.235610 82.031738,8.014217 80.000145,12.156781 
	C79.468002,13.241866 75.751717,12.838451 73.489082,12.980707 
	C71.344978,13.115510 68.947937,12.713174 68.551666,16.499710 
	C57.988392,16.968685 47.897556,16.968685 37.436459,16.968685 
	C37.478783,23.416964 32.387280,20.101370 29.816050,21.693130 
	C28.398258,23.508394 25.591309,24.745306 25.302437,26.417274 
	C24.755106,29.585186 22.838097,28.855318 20.653046,29.077614 
	C18.271280,30.356222 16.434341,32.319134 14.267650,32.801807 
	C10.426772,33.657448 5.744985,31.708261 3.352071,36.753647 
	C3.176302,37.124249 1.811832,36.931072 1.000000,37.000000 
	C1.000000,34.629444 1.000000,32.258884 1.000000,29.444164 
z"/>
<path fill="#7D389B" opacity="1.000000" stroke="none" 
	d="
M1.000000,37.468403 
	C1.811832,36.931072 3.176302,37.124249 3.352071,36.753647 
	C5.744985,31.708261 10.426772,33.657448 14.267650,32.801807 
	C16.434341,32.319134 18.271280,30.356222 20.632885,29.515402 
	C21.009010,32.099247 21.009010,34.227783 21.009010,36.356323 
	C20.450190,36.225822 19.891367,36.095322 19.332546,35.964821 
	C18.555061,37.843613 17.306326,39.672405 17.100542,41.611862 
	C16.701544,45.372280 16.889097,49.194927 16.383631,52.993828 
	C11.482509,53.298706 6.407549,51.417351 3.359299,56.706253 
	C3.120840,57.119995 1.811586,56.916580 1.000000,57.000000 
	C1.000000,50.645603 1.000000,44.291203 1.000000,37.468403 
z"/>
<path fill="#FAA25E" opacity="1.000000" stroke="none" 
	d="
M65.466858,129.000000 
	C64.333969,127.661736 63.738018,126.281097 62.967220,125.006172 
	C62.661102,124.499870 61.729950,124.340408 61.488617,123.831032 
	C59.938194,120.558578 58.500233,117.232841 57.481129,113.483215 
	C62.962826,113.083130 67.988724,113.124451 73.020226,113.539917 
	C73.665619,114.939095 74.109200,116.188187 74.979332,116.950180 
	C78.655449,120.169441 82.292099,123.327599 81.000000,129.000000 
	C75.977905,129.000000 70.955818,129.000000 65.466858,129.000000 
z"/>
<path fill="#FA835E" opacity="1.000000" stroke="none" 
	d="
M81.460632,129.000000 
	C82.292099,123.327599 78.655449,120.169441 74.979332,116.950180 
	C74.109200,116.188187 73.665619,114.939095 73.483917,113.475914 
	C80.271332,112.989960 86.600647,112.942154 92.946999,113.367546 
	C92.976021,118.893829 92.988007,123.946915 93.000000,129.000000 
	C89.307091,129.000000 85.614182,129.000000 81.460632,129.000000 
z"/>
<path fill="#FA835E" opacity="1.000000" stroke="none" 
	d="
M1.000000,97.000000 
	C1.000000,93.307091 1.000000,89.614182 1.384715,85.452988 
	C2.881440,84.229805 4.112839,83.602867 5.083797,82.696823 
	C8.428995,79.575287 11.290424,75.553391 16.898472,77.445663 
	C17.005550,82.924736 17.048906,87.939728 16.626183,92.965538 
	C11.684487,93.405701 6.473042,91.243080 3.389735,96.695358 
	C3.153208,97.113617 1.822253,96.912971 1.000000,97.000000 
z"/>
<path fill="#97389B" opacity="1.000000" stroke="none" 
	d="
M1.000000,57.466862 
	C1.811586,56.916580 3.120840,57.119995 3.359299,56.706253 
	C6.407549,51.417351 11.482509,53.298706 16.451805,53.450584 
	C16.924438,57.603107 16.878931,61.300911 16.403469,64.999123 
	C13.165859,65.367355 10.037257,63.766926 8.227509,68.162994 
	C7.310814,70.389748 3.501522,71.425682 1.000000,73.000000 
	C1.000000,67.977905 1.000000,62.955814 1.000000,57.466862 
z"/>
<path fill="#FAA25E" opacity="1.000000" stroke="none" 
	d="
M1.000000,97.460632 
	C1.822253,96.912971 3.153208,97.113617 3.389735,96.695358 
	C6.473042,91.243080 11.684487,93.405701 17.043629,92.984604 
	C18.946922,93.847488 20.517874,94.526794 20.858454,95.597473 
	C21.381292,97.241119 21.058039,99.153900 21.093830,100.952477 
	C17.875322,101.330048 14.741903,100.265198 11.945293,104.018105 
	C9.942369,106.705917 5.263789,107.399857 1.389492,108.991692 
	C1.000000,105.307091 1.000000,101.614182 1.000000,97.460632 
z"/>
<path fill="#FA5E5E" opacity="1.000000" stroke="none" 
	d="
M1.000000,73.460632 
	C3.501522,71.425682 7.310814,70.389748 8.227509,68.162994 
	C10.037257,63.766926 13.165859,65.367355 16.470135,65.455170 
	C16.922754,69.601067 16.878752,73.291328 16.834751,76.981598 
	C11.290424,75.553391 8.428995,79.575287 5.083797,82.696823 
	C4.112839,83.602867 2.881440,84.229805 1.384715,84.992348 
	C1.000000,81.307091 1.000000,77.614182 1.000000,73.460632 
z"/>
<path fill="#FA5E5E" opacity="1.000000" stroke="none" 
	d="
M93.399994,129.000000 
	C92.988007,123.946915 92.976021,118.893829 92.976044,112.945755 
	C93.830360,111.036369 94.499565,109.462708 95.554749,109.136131 
	C97.218636,108.621162 99.141853,108.944069 100.955292,108.912308 
	C100.969238,111.409317 101.289909,113.956558 100.892082,116.386147 
	C100.614967,118.078499 99.135017,119.538628 98.583282,121.230011 
	C97.855225,123.461899 97.509880,125.818634 97.000000,128.560852 
	C95.933327,129.000000 94.866661,129.000000 93.399994,129.000000 
z"/>
<path fill="#FFFFFF" opacity="1.000000" stroke="none" 
	d="
M100.973740,108.508041 
	C99.141853,108.944069 97.218636,108.621162 95.554749,109.136131 
	C94.499565,109.462708 93.830360,111.036369 92.959015,112.472549 
	C86.600647,112.942154 80.271332,112.989960 73.478317,113.101768 
	C67.988724,113.124451 62.962826,113.083130 57.474293,113.103912 
	C51.518326,113.109146 46.018078,113.183403 40.536983,112.894402 
	C39.312309,112.829826 38.112526,111.547340 36.986668,110.710670 
	C36.516792,110.361488 36.224796,109.240341 35.928432,109.268738 
	C29.655733,109.869736 26.967718,105.248428 23.825075,101.203888 
	C23.548113,100.847435 22.553106,101.048912 21.492720,100.971863 
	C21.058039,99.153900 21.381292,97.241119 20.858454,95.597473 
	C20.517874,94.526794 18.946922,93.847488 17.509708,92.973785 
	C17.048906,87.939728 17.005550,82.924736 16.898472,77.445663 
	C16.878752,73.291328 16.922754,69.601067 16.900091,65.454758 
	C16.878931,61.300911 16.924438,57.603107 16.901772,53.448547 
	C16.889097,49.194927 16.701544,45.372280 17.100542,41.611862 
	C17.306326,39.672405 18.555061,37.843613 19.332546,35.964821 
	C19.891367,36.095322 20.450190,36.225822 21.009010,36.356323 
	C21.009010,34.227783 21.009010,32.099247 21.029171,29.532919 
	C22.838097,28.855318 24.755106,29.585186 25.302437,26.417274 
	C25.591309,24.745306 28.398258,23.508394 29.816050,21.693130 
	C32.387280,20.101370 37.478783,23.416964 37.436459,16.968685 
	C47.897556,16.968685 57.988392,16.968685 68.543823,16.901276 
	C75.491402,16.889286 81.983955,16.765074 88.451523,17.109755 
	C90.388077,17.212957 92.254837,18.625648 94.153572,19.438406 
	C94.014458,19.949198 93.875343,20.459988 93.736229,20.970779 
	C95.881302,20.970779 98.026375,20.970779 100.171448,20.970779 
	C99.964531,21.280933 99.757614,21.591089 99.550697,21.901243 
	C102.391541,24.270515 105.232384,26.639788 108.483261,29.033707 
	C108.929176,30.548374 108.673172,32.123997 109.078384,33.505703 
	C109.535095,35.062988 110.587204,36.445660 111.380348,37.904278 
	C111.930122,37.732250 112.479904,37.560226 113.029678,37.388199 
	C113.029678,50.279819 113.029678,63.171444 113.097595,76.527908 
	C113.110283,80.644112 112.864937,84.305557 113.057976,87.943756 
	C113.222237,91.039421 112.897743,93.471413 109.027893,93.525871 
	C109.027893,95.876747 109.027893,97.863045 109.027893,98.505287 
	C105.863632,102.284935 103.427910,105.194359 100.973740,108.508041 
M25.033089,57.923992 
	C25.077120,62.942982 25.121151,67.961967 25.037836,73.909340 
	C25.080456,78.934135 25.123075,83.958923 25.045940,89.789780 
	C25.232056,90.727226 25.087234,92.074875 25.658091,92.535439 
	C29.315660,95.486282 33.130329,98.242401 36.975067,101.893921 
	C37.847782,102.924004 38.554096,104.543129 39.631798,104.847580 
	C41.291828,105.316528 43.206501,104.884064 45.940960,104.958076 
	C52.299416,104.916817 58.657871,104.875557 65.943306,104.962212 
	C72.301849,104.919739 78.660393,104.877274 85.897522,104.966469 
	C87.999634,104.966469 90.101753,104.966469 92.027206,104.966469 
	C92.910835,103.521095 93.613647,101.272194 94.429771,101.230293 
	C97.651932,101.064857 96.872742,98.881500 97.879036,97.022461 
	C100.170799,95.391357 102.462570,93.760262 104.998779,91.955185 
	C104.998779,91.160202 105.005363,90.184364 104.997719,89.208649 
	C104.944939,82.469818 104.889206,75.731003 104.970398,68.064636 
	C104.970398,57.849865 104.970398,47.635090 104.970398,38.053936 
	C103.295128,37.021538 101.227211,36.346043 101.215973,35.637917 
	C101.163742,32.346409 98.931969,33.091507 97.016167,32.127220 
	C96.693527,31.118177 96.649216,29.837109 95.987213,29.159737 
	C94.803177,27.948219 93.246857,27.100531 91.846169,26.100748 
	C92.007683,25.777931 92.169189,25.455112 92.330704,25.132294 
	C74.114899,25.132294 55.899094,25.132294 38.847237,25.132294 
	C33.946743,29.986378 29.694845,34.198006 25.166376,38.683586 
	C25.166376,41.702377 25.166376,45.346611 25.030153,49.871731 
	C25.075617,52.247368 25.121080,54.623001 25.033089,57.923992 
z"/>
<path fill="#7D389B" opacity="1.000000" stroke="none" 
	d="
M25.166376,48.990849 
	C25.166376,45.346611 25.166376,41.702377 25.166376,38.683586 
	C29.694845,34.198006 33.946743,29.986378 38.847237,25.132294 
	C55.899094,25.132294 74.114899,25.132294 92.330704,25.132294 
	C92.169189,25.455112 92.007683,25.777931 91.846169,26.100748 
	C93.246857,27.100531 94.803177,27.948219 95.987213,29.159737 
	C96.649216,29.837109 96.693527,31.118177 96.662582,32.558876 
	C93.360245,32.865028 92.892853,34.766582 92.518814,37.057892 
	C89.758858,37.030659 87.432838,37.044449 84.639832,37.044479 
	C81.906021,37.022041 79.632439,37.120617 77.374046,36.978321 
	C74.354843,36.788078 72.706352,37.877922 72.490692,41.057831 
	C67.269348,41.016705 62.510124,41.016705 57.617615,41.016705 
	C57.152134,42.440460 56.736076,43.713032 56.296272,45.058250 
	C53.709354,45.058250 51.408081,45.058250 48.639679,45.044487 
	C43.978020,45.733784 38.823318,42.768021 35.844479,48.384132 
	C35.521851,48.992397 33.714039,48.934013 32.588207,48.970356 
	C30.116617,49.050129 27.640591,48.992428 25.166376,48.990849 
z"/>
<path fill="#FA835E" opacity="1.000000" stroke="none" 
	d="
M25.165697,88.983719 
	C25.123075,83.958923 25.080456,78.934135 25.557802,73.449768 
	C31.081074,72.978561 36.084381,72.966919 41.509319,72.974167 
	C44.301105,72.674774 45.144180,73.703217 45.055653,76.071320 
	C44.997509,77.626556 45.057961,79.528191 45.885719,80.690338 
	C46.986725,82.236099 48.886017,83.213264 51.052547,84.913605 
	C52.256138,84.978310 54.372223,85.092079 56.488308,85.205849 
	C56.294994,85.722412 56.101681,86.238983 55.908367,86.755547 
	C57.604298,87.503357 59.260105,88.758125 61.004295,88.896172 
	C64.950470,89.208488 68.940247,88.969872 73.302231,88.972549 
	C79.315781,90.989204 84.977135,98.908882 85.018936,104.834808 
	C78.660393,104.877274 72.301849,104.919739 65.467041,104.523720 
	C62.913139,100.789894 61.142708,97.216019 56.449036,96.911758 
	C55.314358,96.838203 54.230408,95.888802 53.135464,95.318489 
	C51.671261,94.555840 50.252026,93.697067 48.750244,93.019798 
	C47.737217,92.562950 45.894775,92.614655 45.660389,91.981163 
	C44.298901,88.301399 41.305569,89.037506 38.583797,89.010612 
	C34.111443,88.966423 29.638432,88.989189 25.165697,88.983719 
z"/>
<path fill="#97389B" opacity="1.000000" stroke="none" 
	d="
M92.952766,37.098915 
	C92.892853,34.766582 93.360245,32.865028 96.704010,32.971752 
	C98.931969,33.091507 101.163742,32.346409 101.215973,35.637917 
	C101.227211,36.346043 103.295128,37.021538 104.970398,38.053936 
	C104.970398,47.635090 104.970398,57.849865 104.513870,68.524292 
	C100.698128,67.118744 97.940544,63.910805 93.555496,64.276817 
	C93.410873,64.288879 93.321442,63.233364 92.988480,63.027153 
	C91.763908,62.268707 90.447426,61.658634 89.097397,60.576973 
	C87.897812,58.641270 86.766365,57.121330 84.879135,54.586105 
	C84.879135,53.830242 84.879135,51.700363 84.879135,50.891968 
	C82.649796,48.520390 81.204720,46.983120 79.430557,45.095757 
	C77.825546,45.017967 75.532661,44.906837 73.167419,44.792202 
	C73.086342,43.396923 73.019577,42.247940 72.952805,41.098957 
	C72.706352,37.877922 74.354843,36.788078 77.374046,36.978321 
	C79.632439,37.120617 81.906021,37.022041 84.596184,37.488873 
	C85.019531,40.179699 85.019531,42.412376 85.019531,44.696281 
	C87.955673,44.696281 90.321053,44.696281 92.952766,44.696281 
	C92.952766,41.963715 92.952766,39.531315 92.952766,37.098915 
z"/>
<path fill="#FA5E83" opacity="1.000000" stroke="none" 
	d="
M89.165527,60.992737 
	C90.447426,61.658634 91.763908,62.268707 92.988480,63.027153 
	C93.321442,63.233364 93.410873,64.288879 93.555496,64.276817 
	C97.940544,63.910805 100.698128,67.118744 104.445877,68.988068 
	C104.889206,75.731003 104.944939,82.469818 104.997719,89.208649 
	C105.005363,90.184364 104.998779,91.160202 104.998779,91.955185 
	C102.462570,93.760262 100.170799,95.391357 97.456558,96.597641 
	C96.808472,91.326462 98.231499,86.036316 92.910652,82.667465 
	C90.216599,80.961746 87.740112,78.912384 85.102905,76.606064 
	C86.150505,74.639015 87.260460,73.084290 89.165527,70.415833 
	C89.165527,68.239059 89.165527,64.615898 89.165527,60.992737 
z"/>
<path fill="#FA5E5E" opacity="1.000000" stroke="none" 
	d="
M85.165260,77.018387 
	C87.740112,78.912384 90.216599,80.961746 92.910652,82.667465 
	C98.231499,86.036316 96.808472,91.326462 97.051979,96.639236 
	C96.872742,98.881500 97.651932,101.064857 94.429771,101.230293 
	C93.613647,101.272194 92.910835,103.521095 92.027206,104.966469 
	C90.101753,104.966469 87.999634,104.966469 85.458229,104.900635 
	C84.977135,98.908882 79.315781,90.989204 73.338058,88.547958 
	C73.004349,81.785393 78.275558,86.835541 80.606720,84.037430 
	C80.954155,83.485191 81.674469,81.257065 82.501122,81.216888 
	C85.793541,81.056885 84.736610,78.666138 85.165260,77.018387 
z"/>
<path fill="#FAA25E" opacity="1.000000" stroke="none" 
	d="
M25.105820,89.386749 
	C29.638432,88.989189 34.111443,88.966423 38.583797,89.010612 
	C41.305569,89.037506 44.298901,88.301399 45.660389,91.981163 
	C45.894775,92.614655 47.737217,92.562950 48.750244,93.019798 
	C50.252026,93.697067 51.671261,94.555840 53.135464,95.318489 
	C54.230408,95.888802 55.314358,96.838203 56.449036,96.911758 
	C61.142708,97.216019 62.913139,100.789894 65.003555,104.459763 
	C58.657871,104.875557 52.299416,104.916817 45.462433,104.503342 
	C43.932373,98.595352 39.636356,101.932838 36.893349,101.062538 
	C33.130329,98.242401 29.315660,95.486282 25.658091,92.535439 
	C25.087234,92.074875 25.232056,90.727226 25.105820,89.386749 
z"/>
<path fill="#FA5E5E" opacity="1.000000" stroke="none" 
	d="
M41.087685,72.955276 
	C36.084381,72.966919 31.081074,72.978561 25.621475,72.985580 
	C25.121151,67.961967 25.077120,62.942982 25.530579,57.461441 
	C28.302582,56.513271 30.638264,56.211304 32.831257,55.480915 
	C34.436256,54.946365 35.774136,53.385044 37.373409,53.110500 
	C39.795109,52.694767 42.340557,52.999878 44.899311,53.412975 
	C43.857403,55.360825 42.749611,56.894409 41.087685,59.195110 
	C41.087685,63.034363 41.087685,67.994820 41.087685,72.955276 
z"/>
<path fill="#97389B" opacity="1.000000" stroke="none" 
	d="
M44.833424,52.998711 
	C42.340557,52.999878 39.795109,52.694767 37.373409,53.110500 
	C35.774136,53.385044 34.436256,54.946365 32.831257,55.480915 
	C30.638264,56.211304 28.302582,56.513271 25.597305,56.998764 
	C25.121080,54.623001 25.075617,52.247368 25.098265,49.431290 
	C27.640591,48.992428 30.116617,49.050129 32.588207,48.970356 
	C33.714039,48.934013 35.521851,48.992397 35.844479,48.384132 
	C38.823318,42.768021 43.978020,45.733784 48.595680,45.451706 
	C48.529705,46.901642 48.024246,48.824989 47.554111,48.816391 
	C44.153526,48.754211 45.271114,51.337170 44.833424,52.998711 
z"/>
<path fill="#FABF5E" opacity="1.000000" stroke="none" 
	d="
M36.934208,101.478226 
	C39.636356,101.932838 43.932373,98.595352 44.998528,104.441299 
	C43.206501,104.884064 41.291828,105.316528 39.631798,104.847580 
	C38.554096,104.543129 37.847782,102.924004 36.934208,101.478226 
z"/>
<path fill="#FFFFFF" opacity="1.000000" stroke="none" 
	d="
M44.899311,53.412979 
	C45.271114,51.337170 44.153526,48.754211 47.554111,48.816391 
	C48.024246,48.824989 48.529705,46.901642 49.062809,45.465469 
	C51.408081,45.058250 53.709354,45.058250 56.296272,45.058250 
	C56.736076,43.713032 57.152134,42.440460 57.617615,41.016705 
	C62.510124,41.016705 67.269348,41.016705 72.490692,41.057831 
	C73.019577,42.247940 73.086342,43.396923 73.167419,44.792202 
	C75.532661,44.906837 77.825546,45.017967 79.430557,45.095757 
	C81.204720,46.983120 82.649796,48.520390 84.879135,50.891968 
	C84.879135,51.700363 84.879135,53.830242 84.879135,54.586105 
	C86.766365,57.121330 87.897812,58.641270 89.097397,60.576973 
	C89.165527,64.615898 89.165527,68.239059 89.165527,70.415833 
	C87.260460,73.084290 86.150505,74.639015 85.102905,76.606064 
	C84.736610,78.666138 85.793541,81.056885 82.501122,81.216888 
	C81.674469,81.257065 80.954155,83.485191 80.606720,84.037430 
	C78.275558,86.835541 73.004349,81.785393 72.948120,88.530731 
	C68.940247,88.969872 64.950470,89.208488 61.004295,88.896172 
	C59.260105,88.758125 57.604298,87.503357 55.908367,86.755547 
	C56.101681,86.238983 56.294994,85.722412 56.488308,85.205849 
	C54.372223,85.092079 52.256138,84.978310 51.052547,84.913605 
	C48.886017,83.213264 46.986725,82.236099 45.885719,80.690338 
	C45.057961,79.528191 44.997509,77.626556 45.055653,76.071320 
	C45.144180,73.703217 44.301105,72.674774 41.509319,72.974167 
	C41.087685,67.994820 41.087685,63.034363 41.087685,59.195110 
	C42.749611,56.894409 43.857403,55.360825 44.899311,53.412979 
M56.854256,52.830330 
	C56.854256,52.830330 56.847942,52.971050 56.037483,52.995651 
	C53.755356,54.628929 51.473228,56.262207 49.122112,57.944862 
	C49.122112,62.694702 49.122112,67.500206 49.122112,71.489693 
	C52.046700,73.589523 54.469948,75.329407 56.977844,77.908173 
	C57.839169,78.935242 58.535751,80.558319 59.599678,80.852394 
	C61.276783,81.315964 63.200764,80.886368 65.898514,80.966484 
	C68.031731,80.966484 70.164948,80.966484 70.992317,80.966484 
	C74.736885,77.359764 77.681389,74.523659 80.834846,71.486282 
	C80.834846,69.638947 80.834846,67.329544 80.961342,64.138168 
	C80.961342,62.039394 80.961342,59.940620 80.961342,58.035278 
	C79.510506,57.104816 78.279961,56.325397 77.059578,55.530357 
	C75.706024,54.648560 74.361771,53.752491 73.001396,52.008320 
	C72.168358,51.007839 71.390350,49.204395 70.492966,49.142899 
	C66.109032,48.842506 61.693253,49.006874 57.195004,49.006874 
	C57.113644,50.527893 57.052845,51.664494 56.854256,52.830330 
z"/>
<path fill="#FFFFFF" opacity="1.000000" stroke="none" 
	d="
M92.518814,37.057892 
	C92.952766,39.531315 92.952766,41.963715 92.952766,44.696281 
	C90.321053,44.696281 87.955673,44.696281 85.019531,44.696281 
	C85.019531,42.412376 85.019531,40.179699 85.063179,37.502632 
	C87.432838,37.044449 89.758858,37.030659 92.518814,37.057892 
z"/>
<path fill="#FA5E5E" opacity="1.000000" stroke="none" 
	d="
M80.834846,65.020142 
	C80.834846,67.329544 80.834846,69.638947 80.834846,71.486282 
	C77.681389,74.523659 74.736885,77.359764 70.992317,80.966484 
	C70.164948,80.966484 68.031731,80.966484 65.443474,80.506866 
	C63.936214,74.579597 59.637119,77.938225 56.893196,77.069283 
	C54.469948,75.329407 52.046700,73.589523 49.122112,71.489693 
	C49.122112,67.500206 49.122112,62.694702 49.122112,57.944862 
	C51.473228,56.262207 53.755356,54.628929 56.496738,53.388718 
	C56.969673,56.843002 59.043190,57.008713 61.356686,57.013447 
	C64.678017,57.020241 67.712029,56.547291 70.206970,60.362324 
	C72.320076,63.593479 76.004143,66.435020 80.834846,65.020142 
z"/>
<path fill="#FA5E83" opacity="1.000000" stroke="none" 
	d="
M80.898094,64.579155 
	C76.004143,66.435020 72.320076,63.593479 70.206970,60.362324 
	C67.712029,56.547291 64.678017,57.020241 61.356686,57.013447 
	C59.043190,57.008713 56.969673,56.843002 56.901970,53.376415 
	C56.847942,52.971050 56.854256,52.830330 57.383568,52.880646 
	C62.946407,52.908188 67.979935,52.885410 73.013466,52.862633 
	C74.361771,53.752491 75.706024,54.648560 77.059578,55.530357 
	C78.279961,56.325397 79.510506,57.104816 80.961342,58.035278 
	C80.961342,59.940620 80.961342,62.039394 80.898094,64.579155 
z"/>
<path fill="#97389B" opacity="1.000000" stroke="none" 
	d="
M73.007431,52.435478 
	C67.979935,52.885410 62.946407,52.908188 57.452461,52.866028 
	C57.052845,51.664494 57.113644,50.527893 57.195004,49.006874 
	C61.693253,49.006874 66.109032,48.842506 70.492966,49.142899 
	C71.390350,49.204395 72.168358,51.007839 73.007431,52.435478 
z"/>
<path fill="#FA835E" opacity="1.000000" stroke="none" 
	d="
M56.935520,77.488724 
	C59.637119,77.938225 63.936214,74.579597 65.004333,80.441048 
	C63.200764,80.886368 61.276783,81.315964 59.599678,80.852394 
	C58.535751,80.558319 57.839169,78.935242 56.935520,77.488724 
z"/>
</svg>
