<svg version="1.1" id="Layer_1" xmlns="http://www.w3.org/2000/svg" xmlns:xlink="http://www.w3.org/1999/xlink" x="0px" y="0px"
	 width="100%" viewBox="0 0 640 640" enable-background="new 0 0 640 640" xml:space="preserve">
<path fill="#01C301" opacity="1.000000" stroke="none" 
	d="
M431.000000,641.000000 
	C287.333374,641.000000 144.166718,641.000000 1.000058,641.000000 
	C1.000038,427.666718 1.000038,214.333466 1.000019,1.000144 
	C214.333237,1.000096 427.666473,1.000096 640.999756,1.000048 
	C640.999878,214.333191 640.999878,427.666382 640.999939,640.999756 
	C571.166687,641.000000 501.333344,641.000000 431.000000,641.000000 
M81.053932,363.733612 
	C81.053932,376.008362 81.053932,388.283081 81.053932,401.147614 
	C88.034424,401.147614 94.428551,401.147614 101.229523,401.147614 
	C101.229523,408.006744 101.229523,414.272552 101.229523,421.145996 
	C108.042389,421.145996 114.436218,421.145996 121.229294,421.145996 
	C121.229294,428.031342 121.229294,434.298309 121.229294,441.153748 
	C128.032639,441.153748 134.427872,441.153748 141.217529,441.153748 
	C141.217529,448.021881 141.217529,454.293701 141.217529,461.177216 
	C154.683731,461.177216 167.737961,461.177216 181.225922,461.177216 
	C181.225922,468.061676 181.225922,474.325043 181.225922,481.177307 
	C201.394348,481.177307 221.115829,481.177307 241.240234,481.177307 
	C241.240234,488.044586 241.240234,494.311951 241.240234,501.146606 
	C261.370361,501.146606 281.090546,501.146606 301.206055,501.146606 
	C301.206055,521.324890 301.206055,540.924255 301.206055,560.636353 
	C314.654205,560.636353 327.690704,560.636353 341.175049,560.636353 
	C341.175049,553.997314 341.175049,547.735779 341.175049,540.864502 
	C354.665649,540.864502 367.715424,540.864502 381.195343,540.864502 
	C381.195343,533.982178 381.195343,527.718506 381.195343,520.851685 
	C394.684113,520.851685 407.733978,520.851685 421.187714,520.851685 
	C421.187714,513.974304 421.187714,507.709656 421.187714,500.854279 
	C427.984344,500.854279 434.374908,500.854279 441.186157,500.854279 
	C441.186157,493.990845 441.186157,487.727692 441.186157,480.855469 
	C448.007050,480.855469 454.396912,480.855469 461.217010,480.855469 
	C461.217010,473.972931 461.217010,467.712738 461.217010,460.820984 
	C468.050323,460.820984 474.440430,460.820984 481.243835,460.820984 
	C481.243835,453.917511 481.243835,447.657440 481.243835,440.793274 
	C488.074371,440.793274 494.467712,440.793274 501.245728,440.793274 
	C501.245728,433.914032 501.245728,427.651550 501.245728,420.796265 
	C508.046631,420.796265 514.438110,420.796265 521.244263,420.796265 
	C521.244263,413.931641 521.244263,407.670746 521.244263,400.791687 
	C528.066589,400.791687 534.455200,400.791687 541.283936,400.791687 
	C541.283936,393.903473 541.283936,387.645020 541.283936,380.941040 
	C548.007263,380.941040 554.269226,380.941040 561.133789,380.941040 
	C561.133789,367.437836 561.133789,354.384491 561.133789,340.895081 
	C568.006653,340.895081 574.270264,340.895081 580.598206,340.895081 
	C580.598206,300.739319 580.598206,261.042938 580.598206,220.906906 
	C573.932373,220.906906 567.669434,220.906906 560.827515,220.906906 
	C560.827515,207.422348 560.827515,194.369232 560.827515,180.880463 
	C553.976624,180.880463 547.719543,180.880463 540.842529,180.880463 
	C540.842529,174.051346 540.842529,167.663040 540.842529,160.886993 
	C533.948853,160.886993 527.683838,160.886993 520.842529,160.886993 
	C520.842529,154.088577 520.842529,147.694748 520.842529,140.926086 
	C513.986755,140.926086 507.720703,140.926086 500.874451,140.926086 
	C500.874451,134.148331 500.874451,127.758057 500.874451,120.968781 
	C487.355438,120.968781 474.427704,120.968781 460.905914,120.968781 
	C460.905914,114.168953 460.905914,107.781631 460.905914,100.801895 
	C447.260803,100.801895 434.209351,100.801895 420.749695,100.801895 
	C420.749695,93.931725 420.749695,87.671608 420.749695,80.827972 
	C400.609497,80.827972 380.898590,80.827972 360.779053,80.827972 
	C360.779053,73.968651 360.779053,67.706268 360.779053,61.330811 
	C327.440521,61.330811 294.524475,61.330811 261.006775,61.330811 
	C261.006775,67.969566 261.006775,74.356995 261.006775,81.328217 
	C240.694366,81.328217 220.978760,81.328217 200.848434,81.328217 
	C200.848434,88.193542 200.848434,94.457283 200.848434,101.300034 
	C187.374268,101.300034 174.320663,101.300034 160.872223,101.300034 
	C160.872223,108.156601 160.872223,114.424065 160.872223,121.273636 
	C154.079437,121.273636 147.686859,121.273636 140.912582,121.273636 
	C140.912582,128.132629 140.912582,134.400803 140.912582,141.242172 
	C134.123367,141.242172 127.731255,141.242172 120.941483,141.242172 
	C120.941483,148.092392 120.941483,154.361115 120.941483,161.210205 
	C114.141365,161.210205 107.751083,161.210205 100.927750,161.210205 
	C100.927750,168.064453 100.927750,174.329422 100.927750,181.204788 
	C94.099091,181.204788 87.710396,181.204788 80.935226,181.204788 
	C80.935226,194.764679 80.935226,207.698898 80.935226,221.249298 
	C74.146362,221.249298 67.755135,221.249298 61.380844,221.249298 
	C61.380844,268.122528 61.380844,314.367737 61.380844,361.017303 
	C66.835220,361.017303 71.975792,360.899414 77.104103,361.097870 
	C78.433624,361.149323 79.724823,362.191071 81.053932,363.733612 
z"/>
<path fill="#FDFFFD" opacity="1.000000" stroke="none" 
	d="
M81.043777,363.255768 
	C79.724823,362.191071 78.433624,361.149323 77.104103,361.097870 
	C71.975792,360.899414 66.835220,361.017303 61.380844,361.017303 
	C61.380844,314.367737 61.380844,268.122528 61.380844,221.249298 
	C67.755135,221.249298 74.146362,221.249298 80.935226,221.249298 
	C80.935226,207.698898 80.935226,194.764679 80.935226,181.204788 
	C87.710396,181.204788 94.099091,181.204788 100.927750,181.204788 
	C100.927750,174.329422 100.927750,168.064453 100.927750,161.210205 
	C107.751083,161.210205 114.141365,161.210205 120.941483,161.210205 
	C120.941483,154.361115 120.941483,148.092392 120.941483,141.242172 
	C127.731255,141.242172 134.123367,141.242172 140.912582,141.242172 
	C140.912582,134.400803 140.912582,128.132629 140.912582,121.273636 
	C147.686859,121.273636 154.079437,121.273636 160.872223,121.273636 
	C160.872223,114.424065 160.872223,108.156601 160.872223,101.300034 
	C174.320663,101.300034 187.374268,101.300034 200.848434,101.300034 
	C200.848434,94.457283 200.848434,88.193542 200.848434,81.328217 
	C220.978760,81.328217 240.694366,81.328217 261.006775,81.328217 
	C261.006775,74.356995 261.006775,67.969566 261.006775,61.330811 
	C294.524475,61.330811 327.440521,61.330811 360.779053,61.330811 
	C360.779053,67.706268 360.779053,73.968651 360.779053,80.827972 
	C380.898590,80.827972 400.609497,80.827972 420.749695,80.827972 
	C420.749695,87.671608 420.749695,93.931725 420.749695,100.801895 
	C434.209351,100.801895 447.260803,100.801895 460.905914,100.801895 
	C460.905914,107.781631 460.905914,114.168953 460.905914,120.968781 
	C474.427704,120.968781 487.355438,120.968781 500.874451,120.968781 
	C500.874451,127.758057 500.874451,134.148331 500.874451,140.926086 
	C507.720703,140.926086 513.986755,140.926086 520.842529,140.926086 
	C520.842529,147.694748 520.842529,154.088577 520.842529,160.886993 
	C527.683838,160.886993 533.948853,160.886993 540.842529,160.886993 
	C540.842529,167.663040 540.842529,174.051346 540.842529,180.880463 
	C547.719543,180.880463 553.976624,180.880463 560.827515,180.880463 
	C560.827515,194.369232 560.827515,207.422348 560.827515,220.906906 
	C567.669434,220.906906 573.932373,220.906906 580.598206,220.906906 
	C580.598206,261.042938 580.598206,300.739319 580.598206,340.895081 
	C574.270264,340.895081 568.006653,340.895081 561.133789,340.895081 
	C561.133789,354.384491 561.133789,367.437836 561.133789,380.941040 
	C554.269226,380.941040 548.007263,380.941040 541.283936,380.941040 
	C541.283936,387.645020 541.283936,393.903473 541.283936,400.791687 
	C534.455200,400.791687 528.066589,400.791687 521.244263,400.791687 
	C521.244263,407.670746 521.244263,413.931641 521.244263,420.796265 
	C514.438110,420.796265 508.046631,420.796265 501.245728,420.796265 
	C501.245728,427.651550 501.245728,433.914032 501.245728,440.793274 
	C494.467712,440.793274 488.074371,440.793274 481.243835,440.793274 
	C481.243835,447.657440 481.243835,453.917511 481.243835,460.820984 
	C474.440430,460.820984 468.050323,460.820984 461.217010,460.820984 
	C461.217010,467.712738 461.217010,473.972931 461.217010,480.855469 
	C454.396912,480.855469 448.007050,480.855469 441.186157,480.855469 
	C441.186157,487.727692 441.186157,493.990845 441.186157,500.854279 
	C434.374908,500.854279 427.984344,500.854279 421.187714,500.854279 
	C421.187714,507.709656 421.187714,513.974304 421.187714,520.851685 
	C407.733978,520.851685 394.684113,520.851685 381.195343,520.851685 
	C381.195343,527.718506 381.195343,533.982178 381.195343,540.864502 
	C367.715424,540.864502 354.665649,540.864502 341.175049,540.864502 
	C341.175049,547.735779 341.175049,553.997314 341.175049,560.636353 
	C327.690704,560.636353 314.654205,560.636353 301.206055,560.636353 
	C301.206055,540.924255 301.206055,521.324890 301.206055,501.146606 
	C281.090546,501.146606 261.370361,501.146606 241.240234,501.146606 
	C241.240234,494.311951 241.240234,488.044586 241.240234,481.177307 
	C221.115829,481.177307 201.394348,481.177307 181.225922,481.177307 
	C181.225922,474.325043 181.225922,468.061676 181.225922,461.177216 
	C167.737961,461.177216 154.683731,461.177216 141.217529,461.177216 
	C141.217529,454.293701 141.217529,448.021881 141.217529,441.153748 
	C134.427872,441.153748 128.032639,441.153748 121.229294,441.153748 
	C121.229294,434.298309 121.229294,428.031342 121.229294,421.145996 
	C114.436218,421.145996 108.042389,421.145996 101.229523,421.145996 
	C101.229523,414.272552 101.229523,408.006744 101.229523,401.147614 
	C94.428551,401.147614 88.034424,401.147614 81.053932,401.147614 
	C81.053932,388.283081 81.053932,376.008362 81.043777,363.255768 
M300.971130,360.974426 
	C300.971130,360.974426 300.942627,360.911835 301.490082,360.476227 
	C301.866425,358.871460 302.530487,357.273956 302.571198,355.660706 
	C302.793243,346.859192 302.932373,338.054077 302.966370,329.249664 
	C303.015289,316.588745 303.223328,303.918945 302.831848,291.269379 
	C302.588287,283.399261 304.649750,281.068542 312.645477,282.205658 
	C313.630188,282.345673 314.606842,282.886230 315.562256,282.828339 
	C319.593048,282.584045 320.069824,284.893768 320.039856,288.190338 
	C320.007202,291.787384 320.536072,295.389526 320.997375,299.610992 
	C321.036072,300.040100 321.074738,300.469208 321.558716,301.466644 
	C325.514008,302.685394 329.060150,304.679474 333.716187,302.412354 
	C336.592773,301.011719 340.032928,302.843536 339.922485,307.233093 
	C339.864258,309.546875 339.386688,311.866852 339.506927,314.162628 
	C339.592194,315.790497 340.361328,317.382568 341.006775,319.632721 
	C341.346619,320.155487 341.686462,320.678253 342.696625,321.674835 
	C345.178467,321.799744 347.659851,322.020325 350.142242,322.032288 
	C358.948914,322.074799 361.114471,324.632507 359.803864,333.631104 
	C359.636627,334.779388 358.957397,335.987579 359.180603,337.024902 
	C359.474792,338.392059 360.427063,339.617645 361.565002,341.002655 
	C361.565002,341.002655 361.990234,341.222748 362.190918,341.870758 
	C366.294098,342.130737 370.509583,343.096130 374.471039,342.465637 
	C379.051392,341.736633 380.002106,343.339569 380.014069,347.317993 
	C380.025787,351.208710 380.522980,355.097931 380.997681,359.602051 
	C381.032867,360.029358 381.068054,360.456696 381.246552,361.638763 
	C384.790833,363.501892 395.242340,363.261993 400.522461,360.951843 
	C400.749939,360.625000 400.977448,360.298157 401.673340,359.297272 
	C401.795746,358.316071 402.024750,357.334900 402.025177,356.353638 
	C402.044281,313.006226 402.051361,269.658813 402.008881,226.311432 
	C402.007477,224.882858 401.477936,223.454803 400.847870,221.459198 
	C400.226807,221.250366 399.605743,221.041519 398.390015,220.364304 
	C396.943970,219.992538 395.471802,219.228958 394.056885,219.323441 
	C390.022339,219.592819 385.588287,217.105515 381.573944,221.194443 
	C381.342163,221.467575 381.110413,221.740707 380.190277,222.193512 
	C380.110474,224.693680 379.963715,227.193787 379.961426,229.694031 
	C379.942352,250.610641 379.966431,271.527313 379.939392,292.443909 
	C379.931213,298.779907 379.191010,299.362610 372.774017,299.103668 
	C371.317139,299.044861 369.841003,299.488800 368.372375,299.691498 
	C364.141113,300.275452 362.282318,298.639496 362.044861,294.280426 
	C361.822144,290.192139 361.490906,286.109772 360.857178,281.456696 
	C360.234528,281.245575 359.611877,281.034454 358.324585,280.351288 
	C354.049744,279.935516 349.773987,279.529022 345.500397,279.100922 
	C342.383789,278.788696 342.137939,276.793488 342.128571,274.122986 
	C342.114441,270.092346 341.535645,266.063690 340.967285,261.602203 
	C340.967285,261.602203 340.894928,261.118347 340.750519,260.348724 
	C337.931702,259.960052 335.051300,258.994415 332.305298,259.287628 
	C322.937012,260.287994 322.109436,259.670837 322.008484,250.325241 
	C321.978607,247.558182 321.483704,244.796158 320.850861,241.466965 
	C320.228912,241.258469 319.606995,241.049973 318.317719,240.359512 
	C317.669708,240.233658 317.026520,240.038071 316.372955,239.993256 
	C312.113312,239.701401 305.989075,241.021286 304.073792,238.762390 
	C301.811127,236.093811 303.351685,230.324692 302.896912,225.935608 
	C302.724457,224.271378 301.586884,222.707138 300.425385,221.038177 
	C300.425385,221.038177 299.994934,220.855530 299.737305,220.130020 
	C296.750366,219.788773 293.749023,219.088654 290.780518,219.207626 
	C287.834991,219.325653 284.922546,220.268417 281.631104,221.084213 
	C281.631104,221.084213 281.199738,221.127426 280.459290,221.231003 
	C280.291473,224.330383 279.979889,227.429657 279.977600,230.529160 
	C279.947418,271.254547 279.948151,311.979980 279.999878,352.705292 
	C280.002563,354.800385 280.535736,356.894775 281.012268,359.631958 
	C281.349609,360.158630 281.686951,360.685303 282.696320,361.682556 
	C288.132080,362.034637 293.565582,362.446991 299.006836,362.654968 
	C299.617706,362.678345 300.272797,361.545380 300.971130,360.974426 
M260.977081,360.976898 
	C260.977081,360.976898 260.950623,360.918182 261.719604,360.731812 
	C262.143097,359.061249 262.906738,357.395905 262.932587,355.719208 
	C263.060730,347.405212 262.995544,339.088165 262.996094,330.772217 
	C262.998291,295.678864 262.966034,260.585419 263.054718,225.492310 
	C263.063324,222.092163 262.575378,219.131378 258.632935,219.257462 
	C253.085587,219.434845 247.560104,220.296432 241.572311,221.178894 
	C241.340866,221.461639 241.109436,221.744400 240.385010,222.685898 
	C240.246201,223.829849 239.986588,224.973755 239.986038,226.117783 
	C239.965378,268.978180 239.960297,311.838623 240.004669,354.699005 
	C240.006149,356.128479 240.540924,357.557434 241.018539,359.599915 
	C241.050354,360.027008 241.082169,360.454071 241.533936,361.516449 
	C247.671371,361.869659 253.807800,362.246490 259.949219,362.504761 
	C260.249939,362.517395 260.594330,361.492249 260.977081,360.976898 
M501.069916,344.688751 
	C501.630066,341.373474 499.849030,340.928558 497.031677,340.945740 
	C480.202393,341.048523 463.372192,340.997559 446.542297,340.998108 
	C444.799835,340.998169 443.057343,340.998108 441.419952,340.998108 
	C441.419952,327.271667 441.419952,314.359039 441.419952,301.029510 
	C461.348785,301.029510 480.938232,301.029510 500.803528,301.029510 
	C500.803528,294.217499 500.803528,287.829529 500.803528,280.852539 
	C480.811798,280.852539 461.099304,280.852539 441.383423,280.852539 
	C441.383423,267.347168 441.383423,254.433167 441.383423,240.925064 
	C461.403107,240.925064 481.119049,240.925064 500.791504,240.925064 
	C500.791504,234.060913 500.791504,227.798859 500.791504,221.367828 
	C474.128235,221.367828 447.752960,221.367828 421.404846,221.367828 
	C421.404846,268.107758 421.404846,314.484619 421.404846,360.795288 
	C448.088959,360.795288 474.354767,360.795288 501.066071,360.795288 
	C501.066071,355.569824 501.066071,350.610199 501.069916,344.688751 
M161.083054,326.493134 
	C161.083054,291.426544 161.083054,256.359955 161.083054,221.311920 
	C154.057617,221.311920 147.802979,221.311920 141.337341,221.311920 
	C141.337341,267.985260 141.337341,314.346130 141.337341,360.704041 
	C168.053101,360.704041 194.429214,360.704041 220.685364,360.704041 
	C220.685364,353.936584 220.685364,347.547882 220.685364,340.773743 
	C200.674255,340.773743 181.085205,340.773743 161.083054,340.773743 
	C161.083054,336.082611 161.083054,331.785675 161.083054,326.493134 
z"/>
<path fill="#06BF06" opacity="1.000000" stroke="none" 
	d="
M381.103241,360.884003 
	C381.068054,360.456696 381.032867,360.029358 381.007874,358.838440 
	C381.018097,352.493225 381.018097,346.911591 381.018097,341.222748 
	C374.233063,341.222748 368.111633,341.222748 361.990234,341.222748 
	C361.990234,341.222748 361.565002,341.002655 361.329285,340.493164 
	C361.093597,333.760834 361.093597,327.537994 361.093597,321.201019 
	C354.230042,321.201019 348.128174,321.201019 342.026306,321.201019 
	C341.686462,320.678253 341.346619,320.155487 341.023071,318.855530 
	C341.039368,312.524536 341.039368,306.970734 341.039368,300.898315 
	C333.947327,300.898315 327.530396,300.898315 321.113434,300.898315 
	C321.074738,300.469208 321.036072,300.040100 321.020020,298.844788 
	C321.042694,292.487823 321.042694,286.897064 321.042694,281.294006 
	C314.044678,281.294006 307.788269,281.294006 300.942627,281.294006 
	C300.942627,308.020020 300.942627,334.465912 300.942627,360.911835 
	C300.942627,360.911835 300.971130,360.974426 300.478882,360.968262 
	C293.999207,361.045410 288.011749,361.128693 282.024292,361.211975 
	C281.686951,360.685303 281.349609,360.158630 281.029541,358.854980 
	C281.059113,353.413116 281.078125,348.748199 281.082733,344.083282 
	C281.123169,303.097992 281.161072,262.112701 281.199707,221.127426 
	C281.199738,221.127426 281.631104,221.084213 282.272827,221.060272 
	C288.608002,220.976059 294.301453,220.915787 299.994934,220.855530 
	C299.994934,220.855530 300.425385,221.038177 300.696655,221.526581 
	C300.967926,228.248276 300.967926,234.481567 300.967926,240.841492 
	C307.458038,240.841492 313.221558,240.841492 318.985046,240.841492 
	C319.606995,241.049973 320.228912,241.258469 320.935120,242.206467 
	C321.019379,248.849686 321.019379,254.753403 321.019379,261.118347 
	C328.050781,261.118347 334.472839,261.118347 340.894928,261.118347 
	C340.894928,261.118347 340.967285,261.602203 340.992737,262.275330 
	C341.018219,268.866180 341.018219,274.783936 341.018219,280.823303 
	C347.449707,280.823303 353.219452,280.823303 358.989227,280.823303 
	C359.611877,281.034454 360.234528,281.245575 360.944824,282.199280 
	C361.032471,288.866333 361.032471,294.790833 361.032471,300.692871 
	C368.064117,300.692871 374.435822,300.692871 380.878662,300.692871 
	C380.878662,274.189362 380.878662,248.101593 380.878662,222.013824 
	C381.110413,221.740707 381.342163,221.467575 382.251648,221.138702 
	C388.281097,220.999527 393.632904,220.916107 398.984680,220.832687 
	C399.605743,221.041519 400.226807,221.250366 400.935364,222.201645 
	C401.016327,255.503113 400.990234,288.062134 401.012817,320.621155 
	C401.021912,333.737915 401.137665,346.854584 401.204895,359.971313 
	C400.977448,360.298157 400.749939,360.625000 399.791504,360.982452 
	C393.074768,360.970032 387.088989,360.927032 381.103241,360.884003 
z"/>
<path fill="#07BF07" opacity="1.000000" stroke="none" 
	d="
M501.067993,345.169678 
	C501.066071,350.610199 501.066071,355.569824 501.066071,360.795288 
	C474.354767,360.795288 448.088959,360.795288 421.404846,360.795288 
	C421.404846,314.484619 421.404846,268.107758 421.404846,221.367828 
	C447.752960,221.367828 474.128235,221.367828 500.791504,221.367828 
	C500.791504,227.798859 500.791504,234.060913 500.791504,240.925064 
	C481.119049,240.925064 461.403107,240.925064 441.383423,240.925064 
	C441.383423,254.433167 441.383423,267.347168 441.383423,280.852539 
	C461.099304,280.852539 480.811798,280.852539 500.803528,280.852539 
	C500.803528,287.829529 500.803528,294.217499 500.803528,301.029510 
	C480.938232,301.029510 461.348785,301.029510 441.419952,301.029510 
	C441.419952,314.359039 441.419952,327.271667 441.419952,340.998108 
	C443.057343,340.998108 444.799835,340.998169 446.542297,340.998108 
	C463.372192,340.997559 480.202393,341.048523 497.031677,340.945740 
	C499.849030,340.928558 501.630066,341.373474 501.067993,345.169678 
z"/>
<path fill="#07BF07" opacity="1.000000" stroke="none" 
	d="
M161.083054,326.990906 
	C161.083054,331.785675 161.083054,336.082611 161.083054,340.773743 
	C181.085205,340.773743 200.674255,340.773743 220.685364,340.773743 
	C220.685364,347.547882 220.685364,353.936584 220.685364,360.704041 
	C194.429214,360.704041 168.053101,360.704041 141.337341,360.704041 
	C141.337341,314.346130 141.337341,267.985260 141.337341,221.311920 
	C147.802979,221.311920 154.057617,221.311920 161.083054,221.311920 
	C161.083054,256.359955 161.083054,291.426544 161.083054,326.990906 
z"/>
<path fill="#08BF08" opacity="1.000000" stroke="none" 
	d="
M241.113968,360.881165 
	C241.082169,360.454071 241.050354,360.027008 241.031555,358.836975 
	C241.052597,327.172729 241.081314,296.271484 241.059540,265.370209 
	C241.049362,250.922501 240.941574,236.474838 240.878006,222.027161 
	C241.109436,221.744400 241.340866,221.461639 242.256332,221.115753 
	C248.860458,221.052612 254.780563,221.052612 260.950623,221.052612 
	C260.950623,268.176575 260.950623,314.547363 260.950623,360.918182 
	C260.950623,360.918182 260.977081,360.976898 260.486420,360.975555 
	C253.701828,360.943207 247.407898,360.912201 241.113968,360.881165 
z"/>
<path fill="#E9FFE9" opacity="1.000000" stroke="none" 
	d="
M261.335114,360.825012 
	C260.950623,314.547363 260.950623,268.176575 260.950623,221.052612 
	C254.780563,221.052612 248.860458,221.052612 242.482819,220.959030 
	C247.560104,220.296432 253.085587,219.434845 258.632935,219.257462 
	C262.575378,219.131378 263.063324,222.092163 263.054718,225.492310 
	C262.966034,260.585419 262.998291,295.678864 262.996094,330.772217 
	C262.995544,339.088165 263.060730,347.405212 262.932587,355.719208 
	C262.906738,357.395905 262.143097,359.061249 261.335114,360.825012 
z"/>
<path fill="#E5FFE4" opacity="1.000000" stroke="none" 
	d="
M301.216370,360.694031 
	C300.942627,334.465912 300.942627,308.020020 300.942627,281.294006 
	C307.788269,281.294006 314.044678,281.294006 321.042694,281.294006 
	C321.042694,286.897064 321.042694,292.487823 320.931427,298.534027 
	C320.536072,295.389526 320.007202,291.787384 320.039856,288.190338 
	C320.069824,284.893768 319.593048,282.584045 315.562256,282.828339 
	C314.606842,282.886230 313.630188,282.345673 312.645477,282.205658 
	C304.649750,281.068542 302.588287,283.399261 302.831848,291.269379 
	C303.223328,303.918945 303.015289,316.588745 302.966370,329.249664 
	C302.932373,338.054077 302.793243,346.859192 302.571198,355.660706 
	C302.530487,357.273956 301.866425,358.871460 301.216370,360.694031 
z"/>
<path fill="#E5FFE4" opacity="1.000000" stroke="none" 
	d="
M280.829498,221.179214 
	C281.161072,262.112701 281.123169,303.097992 281.082733,344.083282 
	C281.078125,348.748199 281.059113,353.413116 280.934357,358.533752 
	C280.535736,356.894775 280.002563,354.800385 279.999878,352.705292 
	C279.948151,311.979980 279.947418,271.254547 279.977600,230.529160 
	C279.979889,227.429657 280.291473,224.330383 280.829498,221.179214 
z"/>
<path fill="#E5FFE4" opacity="1.000000" stroke="none" 
	d="
M401.439117,359.634277 
	C401.137665,346.854584 401.021912,333.737915 401.012817,320.621155 
	C400.990234,288.062134 401.016327,255.503113 401.108765,222.485291 
	C401.477936,223.454803 402.007477,224.882858 402.008881,226.311432 
	C402.051361,269.658813 402.044281,313.006226 402.025177,356.353638 
	C402.024750,357.334900 401.795746,358.316071 401.439117,359.634277 
z"/>
<path fill="#E9FFE9" opacity="1.000000" stroke="none" 
	d="
M240.631500,222.356537 
	C240.941574,236.474838 241.049362,250.922501 241.059540,265.370209 
	C241.081314,296.271484 241.052597,327.172729 240.935822,358.530334 
	C240.540924,357.557434 240.006149,356.128479 240.004669,354.699005 
	C239.960297,311.838623 239.965378,268.978180 239.986038,226.117783 
	C239.986588,224.973755 240.246201,223.829849 240.631500,222.356537 
z"/>
<path fill="#E5FFE4" opacity="1.000000" stroke="none" 
	d="
M380.534485,222.103668 
	C380.878662,248.101593 380.878662,274.189362 380.878662,300.692871 
	C374.435822,300.692871 368.064117,300.692871 361.032471,300.692871 
	C361.032471,294.790833 361.032471,288.866333 361.119934,282.483337 
	C361.490906,286.109772 361.822144,290.192139 362.044861,294.280426 
	C362.282318,298.639496 364.141113,300.275452 368.372375,299.691498 
	C369.841003,299.488800 371.317139,299.044861 372.774017,299.103668 
	C379.191010,299.362610 379.931213,298.779907 379.939392,292.443909 
	C379.966431,271.527313 379.942352,250.610641 379.961426,229.694031 
	C379.963715,227.193787 380.110474,224.693680 380.534485,222.103668 
z"/>
<path fill="#E5FFE4" opacity="1.000000" stroke="none" 
	d="
M321.336060,301.182495 
	C327.530396,300.898315 333.947327,300.898315 341.039368,300.898315 
	C341.039368,306.970734 341.039368,312.524536 340.932281,318.534485 
	C340.361328,317.382568 339.592194,315.790497 339.506927,314.162628 
	C339.386688,311.866852 339.864258,309.546875 339.922485,307.233093 
	C340.032928,302.843536 336.592773,301.011719 333.716187,302.412354 
	C329.060150,304.679474 325.514008,302.685394 321.336060,301.182495 
z"/>
<path fill="#E5FFE4" opacity="1.000000" stroke="none" 
	d="
M340.822723,260.733521 
	C334.472839,261.118347 328.050781,261.118347 321.019379,261.118347 
	C321.019379,254.753403 321.019379,248.849686 321.110657,242.488892 
	C321.483704,244.796158 321.978607,247.558182 322.008484,250.325241 
	C322.109436,259.670837 322.937012,260.287994 332.305298,259.287628 
	C335.051300,258.994415 337.931702,259.960052 340.822723,260.733521 
z"/>
<path fill="#E5FFE4" opacity="1.000000" stroke="none" 
	d="
M318.651367,240.600494 
	C313.221558,240.841492 307.458038,240.841492 300.967926,240.841492 
	C300.967926,234.481567 300.967926,228.248276 300.928589,221.556152 
	C301.586884,222.707138 302.724457,224.271378 302.896912,225.935608 
	C303.351685,230.324692 301.811127,236.093811 304.073792,238.762390 
	C305.989075,241.021286 312.113312,239.701401 316.372955,239.993256 
	C317.026520,240.038071 317.669708,240.233658 318.651367,240.600494 
z"/>
<path fill="#E5FFE4" opacity="1.000000" stroke="none" 
	d="
M342.361450,321.437927 
	C348.128174,321.201019 354.230042,321.201019 361.093597,321.201019 
	C361.093597,327.537994 361.093597,333.760834 361.095001,340.443878 
	C360.427063,339.617645 359.474792,338.392059 359.180603,337.024902 
	C358.957397,335.987579 359.636627,334.779388 359.803864,333.631104 
	C361.114471,324.632507 358.948914,322.074799 350.142242,322.032288 
	C347.659851,322.020325 345.178467,321.799744 342.361450,321.437927 
z"/>
<path fill="#E5FFE4" opacity="1.000000" stroke="none" 
	d="
M358.656921,280.587280 
	C353.219452,280.823303 347.449707,280.823303 341.018219,280.823303 
	C341.018219,274.783936 341.018219,268.866180 341.107544,262.491333 
	C341.535645,266.063690 342.114441,270.092346 342.128571,274.122986 
	C342.137939,276.793488 342.383789,278.788696 345.500397,279.100922 
	C349.773987,279.529022 354.049744,279.935516 358.656921,280.587280 
z"/>
<path fill="#E5FFE4" opacity="1.000000" stroke="none" 
	d="
M362.090576,341.546753 
	C368.111633,341.222748 374.233063,341.222748 381.018097,341.222748 
	C381.018097,346.911591 381.018097,352.493225 380.912598,358.531342 
	C380.522980,355.097931 380.025787,351.208710 380.014069,347.317993 
	C380.002106,343.339569 379.051392,341.736633 374.471039,342.465637 
	C370.509583,343.096130 366.294098,342.130737 362.090576,341.546753 
z"/>
<path fill="#E9FFE9" opacity="1.000000" stroke="none" 
	d="
M241.323944,361.198822 
	C247.407898,360.912201 253.701828,360.943207 260.457092,360.962280 
	C260.594330,361.492249 260.249939,362.517395 259.949219,362.504761 
	C253.807800,362.246490 247.671371,361.869659 241.323944,361.198822 
z"/>
<path fill="#E5FFE4" opacity="1.000000" stroke="none" 
	d="
M299.866119,220.492767 
	C294.301453,220.915787 288.608002,220.976059 282.455048,220.942902 
	C284.922546,220.268417 287.834991,219.325653 290.780518,219.207626 
	C293.749023,219.088654 296.750366,219.788773 299.866119,220.492767 
z"/>
<path fill="#E5FFE4" opacity="1.000000" stroke="none" 
	d="
M381.174896,361.261383 
	C387.088989,360.927032 393.074768,360.970032 399.516632,361.110992 
	C395.242340,363.261993 384.790833,363.501892 381.174896,361.261383 
z"/>
<path fill="#E5FFE4" opacity="1.000000" stroke="none" 
	d="
M398.687347,220.598495 
	C393.632904,220.916107 388.281097,220.999527 382.473328,220.985229 
	C385.588287,217.105515 390.022339,219.592819 394.056885,219.323441 
	C395.471802,219.228958 396.943970,219.992538 398.687347,220.598495 
z"/>
<path fill="#E5FFE4" opacity="1.000000" stroke="none" 
	d="
M282.360291,361.447266 
	C288.011749,361.128693 293.999207,361.045410 300.447021,360.955383 
	C300.272797,361.545380 299.617706,362.678345 299.006836,362.654968 
	C293.565582,362.446991 288.132080,362.034637 282.360291,361.447266 
z"/>
</svg>