<svg version="1.1" id="Layer_1" xmlns="http://www.w3.org/2000/svg" xmlns:xlink="http://www.w3.org/1999/xlink" x="0px" y="0px"
	 width="100%" viewBox="0 0 400 400" enable-background="new 0 0 400 400" xml:space="preserve">
<path fill="#41C9B4" opacity="1.000000" stroke="none" 
	d="
M257.000000,401.000000 
	C171.333328,401.000000 86.166664,401.000000 1.000000,401.000000 
	C1.000000,267.666656 1.000000,134.333328 1.000000,1.000000 
	C134.333328,1.000000 267.666656,1.000000 401.000000,1.000000 
	C401.000000,134.333328 401.000000,267.666656 401.000000,401.000000 
	C353.166656,401.000000 305.333344,401.000000 257.000000,401.000000 
M111.035019,151.954834 
	C111.023262,161.751389 110.990593,171.547958 111.003578,181.344482 
	C111.047592,214.550613 111.107765,247.756714 111.045044,281.873535 
	C111.045044,284.778351 111.045044,287.683136 111.045044,290.838287 
	C114.829865,290.838287 117.933640,290.838287 121.962440,290.964722 
	C171.602478,290.960114 221.242508,290.955536 271.803711,290.971558 
	C281.077209,291.051178 281.077332,291.051178 280.972351,281.875336 
	C280.968567,281.544373 280.958252,281.213440 280.989502,279.960663 
	C280.993042,243.310822 281.014923,206.660965 280.992767,170.011139 
	C280.980896,150.356430 280.893219,130.701767 280.950653,110.135002 
	C280.950653,107.234451 280.950653,104.333893 280.950653,101.160255 
	C277.148956,101.160255 274.050812,101.160255 270.028687,101.034966 
	C233.695450,101.077858 197.362213,101.120750 160.119385,101.043373 
	C157.220322,101.043373 154.321259,101.043373 150.885178,101.043373 
	C150.885178,104.769051 150.885178,107.856934 149.987656,110.999283 
	C147.088943,110.999283 144.190231,110.999283 140.891388,110.999283 
	C140.891388,114.689064 140.891388,117.598595 140.891388,120.785545 
	C137.446579,120.949669 134.405182,121.094574 130.799072,121.266380 
	C130.799072,124.712128 130.799072,127.742523 130.799072,131.170013 
	C127.290215,131.170013 124.377586,131.170013 120.940598,131.170013 
	C120.940598,134.678116 120.940598,137.777832 120.038750,140.963776 
	C117.145844,140.963776 114.252930,140.963776 111.160439,140.963776 
	C111.160439,144.835266 111.160439,147.931931 111.035019,151.954834 
z"/>
<path fill="#FFFFFF" opacity="1.000000" stroke="none" 
	d="
M270.882538,290.950958 
	C221.242508,290.955536 171.602478,290.960114 121.491760,290.458954 
	C120.955811,281.060242 120.955811,281.060364 112.155571,280.980072 
	C111.824280,280.977051 111.493034,280.968689 111.161766,280.962830 
	C111.107765,247.756714 111.047592,214.550613 111.003578,181.344482 
	C110.990593,171.547958 111.023262,161.751389 111.540359,151.484558 
	C121.078575,150.956177 121.078697,150.956177 120.963806,141.857849 
	C120.959679,141.531036 120.948494,141.204300 120.940598,140.877533 
	C120.940598,137.777832 120.940598,134.678116 120.940598,131.170013 
	C124.377586,131.170013 127.290215,131.170013 130.799072,131.170013 
	C130.799072,127.742523 130.799072,124.712128 130.799072,121.266380 
	C134.405182,121.094574 137.446579,120.949669 140.891388,120.785545 
	C140.891388,117.598595 140.891388,114.689064 140.891388,110.999283 
	C144.190231,110.999283 147.088943,110.999283 150.896866,110.983566 
	C160.950699,111.052071 160.950653,111.052071 161.016006,102.142006 
	C161.018387,101.815865 161.024551,101.489761 161.028976,101.163635 
	C197.362213,101.120750 233.695450,101.077858 270.500671,101.540344 
	C271.070251,111.650093 270.262024,110.948395 279.844208,111.026131 
	C280.176086,111.028824 280.507874,111.039902 280.839722,111.047073 
	C280.893219,130.701767 280.980896,150.356430 280.992767,170.011139 
	C281.014923,206.660965 280.993042,243.310822 280.518982,280.468506 
	C277.158539,280.976349 274.268646,280.976349 270.882538,280.976349 
	C270.882538,284.778748 270.882538,287.864868 270.882538,290.950958 
M131.038513,261.799225 
	C130.929260,271.081879 130.929260,271.082062 140.041702,270.977692 
	C140.371552,270.973938 140.701263,270.958252 141.964188,270.971130 
	C175.066727,270.980743 208.169312,271.021790 241.271774,270.981201 
	C251.395432,270.968781 251.173447,272.463715 250.983719,259.953400 
	C250.983719,213.740829 250.983719,167.528244 250.983719,121.269333 
	C224.002975,121.269333 197.762390,121.269333 170.906525,121.269333 
	C170.906525,124.568649 170.906525,127.622894 170.906525,130.799667 
	C167.365128,130.955154 164.431320,131.083969 160.903168,131.238876 
	C160.903168,134.574692 160.903168,137.625687 160.903168,140.800095 
	C157.363525,140.955399 154.429718,141.084137 150.901703,141.238937 
	C150.901703,144.568542 150.901703,147.624405 150.901703,150.800690 
	C147.360672,150.955322 144.425552,151.083496 140.903000,151.237335 
	C140.903000,154.636642 140.903000,157.757736 140.007675,160.957748 
	C137.229385,160.957748 134.451111,160.957748 131.070084,160.957748 
	C131.070084,194.729004 131.070084,227.802292 131.038513,261.799225 
z"/>
<path fill="#E5F7F5" opacity="1.000000" stroke="none" 
	d="
M160.574188,101.103500 
	C161.024551,101.489761 161.018387,101.815865 161.016006,102.142006 
	C160.950653,111.052071 160.950699,111.052071 151.345627,110.956329 
	C150.885178,107.856934 150.885178,104.769051 150.885178,101.043373 
	C154.321259,101.043373 157.220322,101.043373 160.574188,101.103500 
z"/>
<path fill="#D6F3EE" opacity="1.000000" stroke="none" 
	d="
M280.895203,110.591034 
	C280.507874,111.039902 280.176086,111.028824 279.844208,111.026131 
	C270.262024,110.948395 271.070251,111.650093 270.962646,101.602982 
	C274.050812,101.160255 277.148956,101.160255 280.950653,101.160255 
	C280.950653,104.333893 280.950653,107.234451 280.895203,110.591034 
z"/>
<path fill="#E5F7F5" opacity="1.000000" stroke="none" 
	d="
M120.489670,140.920654 
	C120.948494,141.204300 120.959679,141.531036 120.963806,141.857849 
	C121.078697,150.956177 121.078575,150.956177 111.603073,151.021454 
	C111.160439,147.931931 111.160439,144.835266 111.160439,140.963776 
	C114.252930,140.963776 117.145844,140.963776 120.489670,140.920654 
z"/>
<path fill="#DEF5F2" opacity="1.000000" stroke="none" 
	d="
M111.103409,281.418182 
	C111.493034,280.968689 111.824280,280.977051 112.155571,280.980072 
	C120.955811,281.060364 120.955811,281.060242 121.029243,290.395752 
	C117.933640,290.838287 114.829865,290.838287 111.045044,290.838287 
	C111.045044,287.683136 111.045044,284.778351 111.103409,281.418182 
z"/>
<path fill="#4ECCB9" opacity="1.000000" stroke="none" 
	d="
M271.343140,290.961243 
	C270.882538,287.864868 270.882538,284.778748 270.882538,280.976349 
	C274.268646,280.976349 277.158539,280.976349 280.499695,280.929443 
	C280.958252,281.213440 280.968567,281.544373 280.972351,281.875336 
	C281.077332,291.051178 281.077209,291.051178 271.343140,290.961243 
z"/>
<path fill="#41C9B4" opacity="1.000000" stroke="none" 
	d="
M140.903000,160.878830 
	C140.903000,157.757736 140.903000,154.636642 140.903000,151.237335 
	C144.425552,151.083496 147.360672,150.955322 150.901703,150.800690 
	C150.901703,147.624405 150.901703,144.568542 150.901703,141.238937 
	C154.429718,141.084137 157.363525,140.955399 160.903168,140.800095 
	C160.903168,137.625687 160.903168,134.574692 160.903168,131.238876 
	C164.431320,131.083969 167.365128,130.955154 170.906525,130.799667 
	C170.906525,127.622894 170.906525,124.568649 170.906525,121.269333 
	C197.762390,121.269333 224.002975,121.269333 250.983719,121.269333 
	C250.983719,167.528244 250.983719,213.740829 250.493164,260.458313 
	C213.666199,260.912598 177.329773,260.861969 140.995117,260.355347 
	C140.965576,226.892517 140.934280,193.885666 140.903000,160.878830 
M171.020706,152.005310 
	C170.974335,154.968811 170.927963,157.932297 169.997513,160.976715 
	C167.034988,161.023087 164.072479,161.069473 160.189011,161.052185 
	C150.126297,161.017853 150.981873,159.861115 151.052765,170.133179 
	C151.055008,170.459000 151.093903,170.784561 151.025375,172.007050 
	C151.025375,174.914124 151.025375,177.821182 151.025375,180.574615 
	C164.786804,180.574615 177.787704,180.574615 190.721161,180.574615 
	C190.721161,167.259583 190.721161,154.372025 190.721161,141.050385 
	C187.344727,141.050385 184.232605,141.050385 180.198959,141.030548 
	C170.915314,140.951233 170.915207,140.951233 171.034256,150.127411 
	C171.038544,150.458405 171.049683,150.789291 171.020706,152.005310 
z"/>
<path fill="#D6F3EE" opacity="1.000000" stroke="none" 
	d="
M140.993362,260.811371 
	C177.329773,260.861969 213.666199,260.912598 250.464569,260.918213 
	C251.173447,272.463715 251.395432,270.968781 241.271774,270.981201 
	C208.169312,271.021790 175.066727,270.980743 141.488678,270.517334 
	C141.023148,267.132172 141.033142,264.200836 141.046265,261.153259 
	C141.049393,261.037048 140.993362,260.811371 140.993362,260.811371 
z"/>
<path fill="#84DCCE" opacity="1.000000" stroke="none" 
	d="
M140.455338,160.918289 
	C140.934280,193.885666 140.965576,226.892517 140.995117,260.355347 
	C140.993362,260.811371 141.049393,261.037048 140.595993,261.075897 
	C137.118423,261.035034 134.094254,260.955322 131.070084,260.875580 
	C131.070084,227.802292 131.070084,194.729004 131.070084,160.957748 
	C134.451111,160.957748 137.229385,160.957748 140.455338,160.918289 
z"/>
<path fill="#E5F7F5" opacity="1.000000" stroke="none" 
	d="
M131.054291,261.337402 
	C134.094254,260.955322 137.118423,261.035034 140.592865,261.192139 
	C141.033142,264.200836 141.023148,267.132172 141.022095,270.505798 
	C140.701263,270.958252 140.371552,270.973938 140.041702,270.977692 
	C130.929260,271.082062 130.929260,271.081879 131.054291,261.337402 
z"/>
<path fill="#FFFFFF" opacity="1.000000" stroke="none" 
	d="
M181.120483,141.050385 
	C184.232605,141.050385 187.344727,141.050385 190.721161,141.050385 
	C190.721161,154.372025 190.721161,167.259583 190.721161,180.574615 
	C177.787704,180.574615 164.786804,180.574615 151.025375,180.574615 
	C151.025375,177.821182 151.025375,174.914124 151.516510,171.525467 
	C160.836334,170.918945 160.835846,170.918930 161.042908,162.101364 
	C161.050644,161.772507 161.086960,161.444336 161.109955,161.115845 
	C164.072479,161.069473 167.034988,161.023087 170.900635,160.962982 
	C181.169922,161.092407 181.170258,161.092392 180.947113,151.859329 
	C180.939270,151.534103 180.910004,151.209396 180.932068,150.440521 
	C181.022446,147.014511 181.071457,144.032455 181.120483,141.050385 
z"/>
<path fill="#4ECCB9" opacity="1.000000" stroke="none" 
	d="
M180.659729,141.040466 
	C181.071457,144.032455 181.022446,147.014511 180.487579,150.475174 
	C177.020370,151.009262 174.039017,151.064743 171.057648,151.120239 
	C171.049683,150.789291 171.038544,150.458405 171.034256,150.127411 
	C170.915207,140.951233 170.915314,140.951233 180.659729,141.040466 
z"/>
<path fill="#B5EAE1" opacity="1.000000" stroke="none" 
	d="
M171.039185,151.562775 
	C174.039017,151.064743 177.020370,151.009262 180.446228,150.919098 
	C180.910004,151.209396 180.939270,151.534103 180.947113,151.859329 
	C181.170258,161.092392 181.169922,161.092407 171.342682,160.922516 
	C170.927963,157.932297 170.974335,154.968811 171.039185,151.562775 
z"/>
<path fill="#98E1D6" opacity="1.000000" stroke="none" 
	d="
M160.649490,161.084015 
	C161.086960,161.444336 161.050644,161.772507 161.042908,162.101364 
	C160.835846,170.918930 160.836334,170.918945 151.561691,171.077057 
	C151.093903,170.784561 151.055008,170.459000 151.052765,170.133179 
	C150.981873,159.861115 150.126297,161.017853 160.649490,161.084015 
z"/>
</svg>