<?xml version="1.0" standalone="no"?>
<!DOCTYPE svg PUBLIC "-//W3C//DTD SVG 20010904//EN"
 "http://www.w3.org/TR/2001/REC-SVG-20010904/DTD/svg10.dtd">
<svg version="1.0" xmlns="http://www.w3.org/2000/svg"
 width="32" height="32" viewBox="0 0 377.000000 369.000000"
 preserveAspectRatio="xMidYMid meet">

<g transform="translate(0.000000,369.000000) scale(0.100000,-0.100000)"
fill="#FFFFFF" stroke="none">
<path d="M875 3559 c-227 -23 -415 -121 -541 -282 -97 -124 -144 -250 -164
-439 -13 -128 -13 -1856 1 -1989 18 -187 62 -306 159 -431 95 -123 245 -222
395 -261 123 -33 263 -37 1164 -37 890 0 1021 4 1151 36 203 49 392 204 485
399 82 170 85 223 85 1290 0 898 -4 1038 -37 1160 -54 206 -206 388 -398 480
-85 40 -169 62 -295 75 -114 12 -1888 11 -2005 -1z m1225 -434 c255 -35 449
-126 609 -286 72 -72 157 -191 204 -284 25 -51 90 -226 85 -230 -5 -4 -195
-55 -205 -55 -5 0 -26 44 -47 98 -134 355 -425 542 -841 542 -263 -1 -466 -69
-616 -208 -142 -132 -221 -287 -271 -536 -20 -95 -23 -142 -22 -326 1 -225 13
-321 63 -476 88 -276 258 -453 511 -534 229 -73 545 -61 745 30 105 47 221
146 277 236 85 136 96 310 29 443 -27 52 -128 161 -151 161 -4 0 -17 -39 -29
-86 -46 -189 -139 -318 -281 -387 -89 -44 -152 -57 -269 -57 -329 0 -549 246
-475 532 37 144 145 247 318 305 78 26 89 27 292 28 l211 0 -7 30 c-24 101
-73 165 -158 207 -62 31 -74 33 -167 33 -87 0 -107 -3 -157 -27 -31 -14 -74
-45 -96 -67 l-40 -42 -91 62 c-99 69 -98 66 -39 130 149 162 392 218 626 144
201 -63 321 -228 359 -489 8 -59 9 -60 59 -86 108 -55 212 -149 273 -246 17
-26 43 -83 58 -128 25 -72 28 -95 28 -211 0 -136 -15 -207 -67 -309 -78 -155
-234 -301 -408 -384 -157 -75 -405 -112 -622 -93 -479 41 -793 285 -941 731
-114 345 -106 839 20 1173 117 313 349 535 650 623 180 52 387 66 583 39z"/>
<path d="M1824 1797 c-97 -25 -168 -81 -189 -147 -18 -58 1 -135 44 -180 74
-78 274 -97 390 -37 84 43 151 163 167 300 6 47 4 55 -12 62 -35 14 -345 16
-400 2z"/>
</g>
</svg>
